<svg width="552" height="424" viewBox="0 0 552 424" fill="none" xmlns="http://www.w3.org/2000/svg">
<g clip-path="url(#clip0_1_47)">
<path d="M321.539 74.7463C331.885 74.7463 340.271 65.889 340.271 54.963C340.271 44.037 331.885 35.1797 321.539 35.1797C311.194 35.1797 302.807 44.037 302.807 54.963C302.807 65.889 311.194 74.7463 321.539 74.7463Z" fill="#F2F2F2"/>
<path d="M466.85 368.352C494.693 345.955 507.992 308.318 499.667 272.416C499.46 271.523 499.241 270.633 499.011 269.745C493.492 248.434 479.837 228.179 459.935 221.369C443.224 215.652 424.983 220.049 407.55 217.775C373.327 213.311 346.794 184.067 328.126 153.448C309.457 122.829 295.109 88.5556 270.302 63.2598C229.412 21.564 162.71 12.5869 112.012 39.7277C61.3139 66.8687 29.0198 127.083 30.3971 187.094C31.7744 247.105 65.5075 304.48 114.496 334.921C132.493 346.104 153.307 354.026 174.022 351.254C191.996 348.849 208.328 338.649 226.217 335.621C254.344 330.86 282.291 344.29 306.618 359.941C330.945 375.591 354.443 394.142 382.087 401.397C408.93 408.442 442.185 388.193 466.85 368.352Z" fill="#9AC0F5"/>
<path d="M426.846 40.9879C426.236 40.5582 425.619 40.1507 425.008 39.7358C407.365 27.8186 388.454 18.1372 368.666 10.8916L364.078 77.7378H334.991V1.13358C333.16 0.733484 331.315 0.355613 329.47 -3.05176e-05V77.7378H294.904C275.875 77.7378 257.626 69.7545 244.17 55.544C230.715 41.3336 223.156 22.0601 223.156 1.96351C221.304 2.38583 219.466 2.83773 217.628 3.31933V77.7378H189.474L185.103 13.9961C164.768 22.2324 145.463 33.0636 127.618 46.2485C127.309 46.4708 127 46.7005 126.699 46.9228C125.148 48.0712 123.619 49.2419 122.096 50.4273V305.446H205.07L203.603 283.996L195.535 166.226H358.009L349.941 283.996L348.475 305.446H430.529V43.5664C429.309 42.6921 428.081 41.8326 426.846 40.9879ZM217.628 146.777H194.203L189.874 83.5763H217.628V146.777ZM329.47 146.777H290.127V145.525C290.127 144.923 290.014 144.327 289.796 143.771C289.578 143.215 289.258 142.71 288.854 142.285C288.451 141.859 287.972 141.522 287.445 141.292C286.918 141.063 286.354 140.945 285.784 140.946H268.68C268.111 140.946 267.547 141.064 267.02 141.294C266.494 141.524 266.016 141.861 265.614 142.287C265.211 142.712 264.892 143.217 264.674 143.772C264.456 144.328 264.344 144.924 264.344 145.525V146.777H223.156V83.5763H329.47V146.777ZM334.991 146.777V83.5763H363.678L359.349 146.777H334.991Z" fill="#35455C"/>
<path d="M-2.28882e-05 321.777C6.09459 329.404 12.6866 336.571 19.7278 343.227L532.272 343.968C539.313 337.312 545.905 330.144 552 322.518L-2.28882e-05 321.777Z" fill="#35455C"/>
<path d="M347.573 253.094V316.594C347.574 317.403 347.878 318.179 348.42 318.751C348.962 319.323 349.696 319.645 350.463 319.646H439.564C440.33 319.645 441.065 319.323 441.606 318.751C442.148 318.179 442.453 317.403 442.454 316.594V253.094C442.452 252.285 442.147 251.51 441.605 250.939C441.063 250.367 440.329 250.046 439.564 250.045H350.463C349.697 250.046 348.963 250.367 348.421 250.939C347.88 251.51 347.575 252.285 347.573 253.094Z" fill="#3F3D56"/>
<path d="M349.663 253.884V315.81C349.664 316.243 349.827 316.657 350.116 316.963C350.406 317.269 350.798 317.441 351.208 317.441H438.822C439.231 317.441 439.624 317.269 439.913 316.963C440.203 316.657 440.366 316.243 440.366 315.81V253.884C440.366 253.451 440.204 253.036 439.914 252.729C439.625 252.423 439.232 252.25 438.822 252.249H351.208C350.798 252.25 350.405 252.423 350.115 252.729C349.826 253.036 349.663 253.451 349.663 253.884Z" fill="#35455C"/>
<path d="M345.709 328.978C345.873 329.194 346.08 329.368 346.316 329.488C346.552 329.607 346.811 329.668 347.073 329.667H442.479C442.74 329.667 442.998 329.605 443.233 329.486C443.469 329.367 443.676 329.195 443.84 328.981C444.005 328.767 444.122 328.517 444.183 328.249C444.245 327.981 444.249 327.702 444.195 327.433L442.714 320.003C442.653 319.7 442.521 319.418 442.33 319.183C442.139 318.948 441.895 318.767 441.621 318.656C441.423 318.574 441.211 318.532 440.998 318.532H348.548C348.335 318.532 348.124 318.574 347.925 318.656C347.651 318.767 347.407 318.948 347.216 319.183C347.025 319.418 346.893 319.7 346.832 320.003L345.351 327.433C345.298 327.702 345.303 327.981 345.365 328.248C345.427 328.515 345.545 328.765 345.709 328.978Z" fill="#2F2E41"/>
<path d="M437.725 321.732H439.978C440.167 321.732 440.321 321.57 440.321 321.37V320.232C440.321 320.032 440.167 319.87 439.978 319.87H437.725C437.535 319.87 437.382 320.032 437.382 320.232V321.37C437.382 321.57 437.535 321.732 437.725 321.732Z" fill="#3F3D56"/>
<path d="M431.848 321.732H434.101C434.29 321.732 434.444 321.57 434.444 321.37V320.232C434.444 320.032 434.29 319.87 434.101 319.87H431.848C431.659 319.87 431.505 320.032 431.505 320.232V321.37C431.505 321.57 431.659 321.732 431.848 321.732Z" fill="#3F3D56"/>
<path d="M425.971 321.732H428.224C428.413 321.732 428.567 321.57 428.567 321.37V320.232C428.567 320.032 428.413 319.87 428.224 319.87H425.971C425.782 319.87 425.628 320.032 425.628 320.232V321.37C425.628 321.57 425.782 321.732 425.971 321.732Z" fill="#3F3D56"/>
<path d="M420.094 321.732H422.347C422.536 321.732 422.69 321.57 422.69 321.37V320.232C422.69 320.032 422.536 319.87 422.347 319.87H420.094C419.905 319.87 419.751 320.032 419.751 320.232V321.37C419.751 321.57 419.905 321.732 420.094 321.732Z" fill="#3F3D56"/>
<path d="M414.217 321.732H416.47C416.659 321.732 416.813 321.57 416.813 321.37V320.232C416.813 320.032 416.659 319.87 416.47 319.87H414.217C414.028 319.87 413.874 320.032 413.874 320.232V321.37C413.874 321.57 414.028 321.732 414.217 321.732Z" fill="#3F3D56"/>
<path d="M408.34 321.732H410.593C410.783 321.732 410.936 321.57 410.936 321.37V320.232C410.936 320.032 410.783 319.87 410.593 319.87H408.34C408.151 319.87 407.997 320.032 407.997 320.232V321.37C407.997 321.57 408.151 321.732 408.34 321.732Z" fill="#3F3D56"/>
<path d="M402.463 321.732H404.716C404.906 321.732 405.059 321.57 405.059 321.37V320.232C405.059 320.032 404.906 319.87 404.716 319.87H402.463C402.274 319.87 402.12 320.032 402.12 320.232V321.37C402.12 321.57 402.274 321.732 402.463 321.732Z" fill="#3F3D56"/>
<path d="M396.586 321.732H398.839C399.029 321.732 399.182 321.57 399.182 321.37V320.232C399.182 320.032 399.029 319.87 398.839 319.87H396.586C396.397 319.87 396.244 320.032 396.244 320.232V321.37C396.244 321.57 396.397 321.732 396.586 321.732Z" fill="#3F3D56"/>
<path d="M390.709 321.732H392.963C393.152 321.732 393.305 321.57 393.305 321.37V320.232C393.305 320.032 393.152 319.87 392.963 319.87H390.709C390.52 319.87 390.367 320.032 390.367 320.232V321.37C390.367 321.57 390.52 321.732 390.709 321.732Z" fill="#3F3D56"/>
<path d="M384.832 321.732H387.086C387.275 321.732 387.428 321.57 387.428 321.37V320.232C387.428 320.032 387.275 319.87 387.086 319.87H384.832C384.643 319.87 384.49 320.032 384.49 320.232V321.37C384.49 321.57 384.643 321.732 384.832 321.732Z" fill="#3F3D56"/>
<path d="M378.955 321.732H381.209C381.398 321.732 381.551 321.57 381.551 321.37V320.232C381.551 320.032 381.398 319.87 381.209 319.87H378.955C378.766 319.87 378.613 320.032 378.613 320.232V321.37C378.613 321.57 378.766 321.732 378.955 321.732Z" fill="#3F3D56"/>
<path d="M373.078 321.732H375.332C375.521 321.732 375.674 321.57 375.674 321.37V320.232C375.674 320.032 375.521 319.87 375.332 319.87H373.078C372.889 319.87 372.736 320.032 372.736 320.232V321.37C372.736 321.57 372.889 321.732 373.078 321.732Z" fill="#3F3D56"/>
<path d="M367.201 321.732H369.455C369.644 321.732 369.797 321.57 369.797 321.37V320.232C369.797 320.032 369.644 319.87 369.455 319.87H367.201C367.012 319.87 366.859 320.032 366.859 320.232V321.37C366.859 321.57 367.012 321.732 367.201 321.732Z" fill="#3F3D56"/>
<path d="M361.324 321.732H363.578C363.767 321.732 363.92 321.57 363.92 321.37V320.232C363.92 320.032 363.767 319.87 363.578 319.87H361.324C361.135 319.87 360.982 320.032 360.982 320.232V321.37C360.982 321.57 361.135 321.732 361.324 321.732Z" fill="#3F3D56"/>
<path d="M355.447 321.732H357.701C357.89 321.732 358.043 321.57 358.043 321.37V320.232C358.043 320.032 357.89 319.87 357.701 319.87H355.447C355.258 319.87 355.105 320.032 355.105 320.232V321.37C355.105 321.57 355.258 321.732 355.447 321.732Z" fill="#3F3D56"/>
<path d="M349.57 321.732H351.824C352.013 321.732 352.166 321.57 352.166 321.37V320.232C352.166 320.032 352.013 319.87 351.824 319.87H349.57C349.381 319.87 349.228 320.032 349.228 320.232V321.37C349.228 321.57 349.381 321.732 349.57 321.732Z" fill="#3F3D56"/>
<path d="M437.794 324.835H440.047C440.237 324.835 440.39 324.673 440.39 324.474V323.335C440.39 323.135 440.237 322.973 440.047 322.973H437.794C437.605 322.973 437.452 323.135 437.452 323.335V324.474C437.452 324.673 437.605 324.835 437.794 324.835Z" fill="#3F3D56"/>
<path d="M431.917 324.835H434.171C434.36 324.835 434.513 324.673 434.513 324.474V323.335C434.513 323.135 434.36 322.973 434.171 322.973H431.917C431.728 322.973 431.575 323.135 431.575 323.335V324.474C431.575 324.673 431.728 324.835 431.917 324.835Z" fill="#3F3D56"/>
<path d="M426.04 324.835H428.294C428.483 324.835 428.636 324.673 428.636 324.474V323.335C428.636 323.135 428.483 322.973 428.294 322.973H426.04C425.851 322.973 425.698 323.135 425.698 323.335V324.474C425.698 324.673 425.851 324.835 426.04 324.835Z" fill="#3F3D56"/>
<path d="M420.163 324.835H422.417C422.606 324.835 422.759 324.673 422.759 324.474V323.335C422.759 323.135 422.606 322.973 422.417 322.973H420.163C419.974 322.973 419.821 323.135 419.821 323.335V324.474C419.821 324.673 419.974 324.835 420.163 324.835Z" fill="#3F3D56"/>
<path d="M414.286 324.835H416.54C416.729 324.835 416.882 324.673 416.882 324.474V323.335C416.882 323.135 416.729 322.973 416.54 322.973H414.286C414.097 322.973 413.944 323.135 413.944 323.335V324.474C413.944 324.673 414.097 324.835 414.286 324.835Z" fill="#3F3D56"/>
<path d="M408.409 324.835H410.663C410.852 324.835 411.005 324.673 411.005 324.474V323.335C411.005 323.135 410.852 322.973 410.663 322.973H408.409C408.22 322.973 408.067 323.135 408.067 323.335V324.474C408.067 324.673 408.22 324.835 408.409 324.835Z" fill="#3F3D56"/>
<path d="M402.532 324.835H404.786C404.975 324.835 405.128 324.673 405.128 324.474V323.335C405.128 323.135 404.975 322.973 404.786 322.973H402.532C402.343 322.973 402.19 323.135 402.19 323.335V324.474C402.19 324.673 402.343 324.835 402.532 324.835Z" fill="#3F3D56"/>
<path d="M396.655 324.835H398.909C399.098 324.835 399.251 324.673 399.251 324.474V323.335C399.251 323.135 399.098 322.973 398.909 322.973H396.655C396.466 322.973 396.313 323.135 396.313 323.335V324.474C396.313 324.673 396.466 324.835 396.655 324.835Z" fill="#3F3D56"/>
<path d="M390.779 324.835H393.032C393.221 324.835 393.374 324.673 393.374 324.474V323.335C393.374 323.135 393.221 322.973 393.032 322.973H390.779C390.589 322.973 390.436 323.135 390.436 323.335V324.474C390.436 324.673 390.589 324.835 390.779 324.835Z" fill="#3F3D56"/>
<path d="M384.902 324.835H387.155C387.344 324.835 387.498 324.673 387.498 324.474V323.335C387.498 323.135 387.344 322.973 387.155 322.973H384.902C384.712 322.973 384.559 323.135 384.559 323.335V324.474C384.559 324.673 384.712 324.835 384.902 324.835Z" fill="#3F3D56"/>
<path d="M379.025 324.835H381.278C381.467 324.835 381.621 324.673 381.621 324.474V323.335C381.621 323.135 381.467 322.973 381.278 322.973H379.025C378.835 322.973 378.682 323.135 378.682 323.335V324.474C378.682 324.673 378.835 324.835 379.025 324.835Z" fill="#3F3D56"/>
<path d="M373.148 324.835H375.401C375.59 324.835 375.744 324.673 375.744 324.474V323.335C375.744 323.135 375.59 322.973 375.401 322.973H373.148C372.959 322.973 372.805 323.135 372.805 323.335V324.474C372.805 324.673 372.959 324.835 373.148 324.835Z" fill="#3F3D56"/>
<path d="M367.271 324.835H369.524C369.713 324.835 369.867 324.673 369.867 324.474V323.335C369.867 323.135 369.713 322.973 369.524 322.973H367.271C367.082 322.973 366.928 323.135 366.928 323.335V324.474C366.928 324.673 367.082 324.835 367.271 324.835Z" fill="#3F3D56"/>
<path d="M361.394 324.835H363.647C363.836 324.835 363.99 324.673 363.99 324.474V323.335C363.99 323.135 363.836 322.973 363.647 322.973H361.394C361.205 322.973 361.051 323.135 361.051 323.335V324.474C361.051 324.673 361.205 324.835 361.394 324.835Z" fill="#3F3D56"/>
<path d="M355.517 324.835H357.77C357.96 324.835 358.113 324.673 358.113 324.474V323.335C358.113 323.135 357.96 322.973 357.77 322.973H355.517C355.328 322.973 355.174 323.135 355.174 323.335V324.474C355.174 324.673 355.328 324.835 355.517 324.835Z" fill="#3F3D56"/>
<path d="M349.64 324.835H351.893C352.083 324.835 352.236 324.673 352.236 324.474V323.335C352.236 323.135 352.083 322.973 351.893 322.973H349.64C349.451 322.973 349.297 323.135 349.297 323.335V324.474C349.297 324.673 349.451 324.835 349.64 324.835Z" fill="#3F3D56"/>
<path d="M389.015 328.559H411.838C412.027 328.559 412.181 328.398 412.181 328.198V327.059C412.181 326.859 412.027 326.697 411.838 326.697H389.015C388.826 326.697 388.673 326.859 388.673 327.059V328.198C388.673 328.398 388.826 328.559 389.015 328.559Z" fill="#3F3D56"/>
<path d="M364.835 265.797H362.84C362.236 265.797 361.745 266.315 361.745 266.954C361.745 267.593 362.236 268.11 362.84 268.11H364.835C365.44 268.11 365.931 267.593 365.931 266.954C365.931 266.315 365.44 265.797 364.835 265.797Z" fill="white"/>
<path d="M387.652 265.797H385.657C385.052 265.797 384.562 266.315 384.562 266.954C384.562 267.593 385.052 268.11 385.657 268.11H387.652C388.257 268.11 388.747 267.593 388.747 266.954C388.747 266.315 388.257 265.797 387.652 265.797Z" fill="white"/>
<path d="M394.117 265.797H392.122C391.517 265.797 391.027 266.315 391.027 266.954C391.027 267.593 391.517 268.11 392.122 268.11H394.117C394.722 268.11 395.212 267.593 395.212 266.954C395.212 266.315 394.722 265.797 394.117 265.797Z" fill="white"/>
<path d="M381.446 265.604H369.047C368.442 265.604 367.951 266.122 367.951 266.761C367.951 267.4 368.442 267.918 369.047 267.918H381.446C382.051 267.918 382.541 267.4 382.541 266.761C382.541 266.122 382.051 265.604 381.446 265.604Z" fill="white"/>
<path d="M411.868 265.604H399.469C398.864 265.604 398.374 266.122 398.374 266.761C398.374 267.4 398.864 267.918 399.469 267.918H411.868C412.473 267.918 412.963 267.4 412.963 266.761C412.963 266.122 412.473 265.604 411.868 265.604Z" fill="white"/>
<path d="M370.92 271.018H368.925C368.32 271.018 367.83 271.536 367.83 272.175C367.83 272.814 368.32 273.332 368.925 273.332H370.92C371.525 273.332 372.015 272.814 372.015 272.175C372.015 271.536 371.525 271.018 370.92 271.018Z" fill="white"/>
<path d="M393.737 271.018H391.742C391.137 271.018 390.646 271.536 390.646 272.175C390.646 272.814 391.137 273.332 391.742 273.332H393.737C394.342 273.332 394.832 272.814 394.832 272.175C394.832 271.536 394.342 271.018 393.737 271.018Z" fill="white"/>
<path d="M400.201 271.018H398.206C397.602 271.018 397.111 271.536 397.111 272.175C397.111 272.814 397.602 273.332 398.206 273.332H400.201C400.806 273.332 401.297 272.814 401.297 272.175C401.297 271.536 400.806 271.018 400.201 271.018Z" fill="white"/>
<path d="M387.53 270.825H375.131C374.526 270.825 374.036 271.343 374.036 271.982C374.036 272.621 374.526 273.139 375.131 273.139H387.53C388.135 273.139 388.626 272.621 388.626 271.982C388.626 271.343 388.135 270.825 387.53 270.825Z" fill="white"/>
<path d="M417.953 270.825H405.553C404.949 270.825 404.458 271.343 404.458 271.982C404.458 272.621 404.949 273.139 405.553 273.139H417.953C418.558 273.139 419.048 272.621 419.048 271.982C419.048 271.343 418.558 270.825 417.953 270.825Z" fill="white"/>
<path d="M377.004 276.239H375.009C374.404 276.239 373.914 276.757 373.914 277.396C373.914 278.035 374.404 278.553 375.009 278.553H377.004C377.609 278.553 378.1 278.035 378.1 277.396C378.1 276.757 377.609 276.239 377.004 276.239Z" fill="white"/>
<path d="M399.821 276.239H397.826C397.221 276.239 396.731 276.757 396.731 277.396C396.731 278.035 397.221 278.553 397.826 278.553H399.821C400.426 278.553 400.916 278.035 400.916 277.396C400.916 276.757 400.426 276.239 399.821 276.239Z" fill="white"/>
<path d="M406.286 276.239H404.291C403.686 276.239 403.196 276.757 403.196 277.396C403.196 278.035 403.686 278.553 404.291 278.553H406.286C406.891 278.553 407.381 278.035 407.381 277.396C407.381 276.757 406.891 276.239 406.286 276.239Z" fill="white"/>
<path d="M393.615 276.046H381.216C380.611 276.046 380.12 276.564 380.12 277.203C380.12 277.842 380.611 278.36 381.216 278.36H393.615C394.22 278.36 394.71 277.842 394.71 277.203C394.71 276.564 394.22 276.046 393.615 276.046Z" fill="white"/>
<path d="M424.037 276.046H411.638C411.033 276.046 410.543 276.564 410.543 277.203C410.543 277.842 411.033 278.36 411.638 278.36H424.037C424.642 278.36 425.132 277.842 425.132 277.203C425.132 276.564 424.642 276.046 424.037 276.046Z" fill="white"/>
<path d="M383.089 281.46H381.094C380.489 281.46 379.999 281.978 379.999 282.617C379.999 283.256 380.489 283.774 381.094 283.774H383.089C383.694 283.774 384.184 283.256 384.184 282.617C384.184 281.978 383.694 281.46 383.089 281.46Z" fill="white"/>
<path d="M405.906 281.46H403.911C403.306 281.46 402.815 281.978 402.815 282.617C402.815 283.256 403.306 283.774 403.911 283.774H405.906C406.51 283.774 407.001 283.256 407.001 282.617C407.001 281.978 406.51 281.46 405.906 281.46Z" fill="white"/>
<path d="M412.37 281.46H410.375C409.77 281.46 409.28 281.978 409.28 282.617C409.28 283.256 409.77 283.774 410.375 283.774H412.37C412.975 283.774 413.466 283.256 413.466 282.617C413.466 281.978 412.975 281.46 412.37 281.46Z" fill="white"/>
<path d="M399.699 281.267H387.3C386.695 281.267 386.205 281.785 386.205 282.424C386.205 283.063 386.695 283.581 387.3 283.581H399.699C400.304 283.581 400.795 283.063 400.795 282.424C400.795 281.785 400.304 281.267 399.699 281.267Z" fill="white"/>
<path d="M387.652 302.221H385.657C385.052 302.221 384.562 302.739 384.562 303.378C384.562 304.017 385.052 304.535 385.657 304.535H387.652C388.257 304.535 388.747 304.017 388.747 303.378C388.747 302.739 388.257 302.221 387.652 302.221Z" fill="white"/>
<path d="M394.117 302.221H392.122C391.517 302.221 391.027 302.739 391.027 303.378C391.027 304.017 391.517 304.535 392.122 304.535H394.117C394.722 304.535 395.212 304.017 395.212 303.378C395.212 302.739 394.722 302.221 394.117 302.221Z" fill="white"/>
<path d="M411.868 302.414H399.469C398.864 302.414 398.374 302.932 398.374 303.571C398.374 304.21 398.864 304.728 399.469 304.728H411.868C412.473 304.728 412.963 304.21 412.963 303.571C412.963 302.932 412.473 302.414 411.868 302.414Z" fill="white"/>
<path d="M364.835 302.221H362.84C362.236 302.221 361.745 302.739 361.745 303.378C361.745 304.017 362.236 304.535 362.84 304.535H364.835C365.44 304.535 365.931 304.017 365.931 303.378C365.931 302.739 365.44 302.221 364.835 302.221Z" fill="white"/>
<path d="M381.446 302.414H369.047C368.442 302.414 367.951 302.932 367.951 303.571C367.951 304.21 368.442 304.728 369.047 304.728H381.446C382.051 304.728 382.541 304.21 382.541 303.571C382.541 302.932 382.051 302.414 381.446 302.414Z" fill="white"/>
<path d="M370.92 297H368.925C368.32 297 367.83 297.518 367.83 298.157C367.83 298.796 368.32 299.314 368.925 299.314H370.92C371.525 299.314 372.015 298.796 372.015 298.157C372.015 297.518 371.525 297 370.92 297Z" fill="white"/>
<path d="M393.737 297H391.742C391.137 297 390.646 297.518 390.646 298.157C390.646 298.796 391.137 299.314 391.742 299.314H393.737C394.342 299.314 394.832 298.796 394.832 298.157C394.832 297.518 394.342 297 393.737 297Z" fill="white"/>
<path d="M400.201 297H398.206C397.602 297 397.111 297.518 397.111 298.157C397.111 298.796 397.602 299.314 398.206 299.314H400.201C400.806 299.314 401.297 298.796 401.297 298.157C401.297 297.518 400.806 297 400.201 297Z" fill="white"/>
<path d="M387.53 297.193H375.131C374.526 297.193 374.036 297.711 374.036 298.35C374.036 298.989 374.526 299.507 375.131 299.507H387.53C388.135 299.507 388.626 298.989 388.626 298.35C388.626 297.711 388.135 297.193 387.53 297.193Z" fill="white"/>
<path d="M377.004 291.779H375.009C374.404 291.779 373.914 292.297 373.914 292.936C373.914 293.575 374.404 294.093 375.009 294.093H377.004C377.609 294.093 378.1 293.575 378.1 292.936C378.1 292.297 377.609 291.779 377.004 291.779Z" fill="white"/>
<path d="M399.821 291.779H397.826C397.221 291.779 396.731 292.297 396.731 292.936C396.731 293.575 397.221 294.093 397.826 294.093H399.821C400.426 294.093 400.916 293.575 400.916 292.936C400.916 292.297 400.426 291.779 399.821 291.779Z" fill="white"/>
<path d="M406.286 291.779H404.291C403.686 291.779 403.196 292.297 403.196 292.936C403.196 293.575 403.686 294.093 404.291 294.093H406.286C406.891 294.093 407.381 293.575 407.381 292.936C407.381 292.297 406.891 291.779 406.286 291.779Z" fill="white"/>
<path d="M393.615 291.972H381.216C380.611 291.972 380.12 292.49 380.12 293.129C380.12 293.768 380.611 294.285 381.216 294.285H393.615C394.22 294.285 394.71 293.768 394.71 293.129C394.71 292.49 394.22 291.972 393.615 291.972Z" fill="white"/>
<path d="M383.089 286.558H381.094C380.489 286.558 379.999 287.076 379.999 287.715C379.999 288.354 380.489 288.872 381.094 288.872H383.089C383.694 288.872 384.184 288.354 384.184 287.715C384.184 287.076 383.694 286.558 383.089 286.558Z" fill="white"/>
<path d="M405.906 286.558H403.911C403.306 286.558 402.815 287.076 402.815 287.715C402.815 288.354 403.306 288.872 403.911 288.872H405.906C406.51 288.872 407.001 288.354 407.001 287.715C407.001 287.076 406.51 286.558 405.906 286.558Z" fill="white"/>
<path d="M412.37 286.558H410.375C409.77 286.558 409.28 287.076 409.28 287.715C409.28 288.354 409.77 288.872 410.375 288.872H412.37C412.975 288.872 413.466 288.354 413.466 287.715C413.466 287.076 412.975 286.558 412.37 286.558Z" fill="white"/>
<path d="M399.699 286.751H387.3C386.695 286.751 386.205 287.269 386.205 287.908C386.205 288.547 386.695 289.064 387.3 289.064H399.699C400.304 289.064 400.795 288.547 400.795 287.908C400.795 287.269 400.304 286.751 399.699 286.751Z" fill="white"/>
<path d="M354.229 363.41L344.863 347.775L374.26 323.026L386.394 308.829C387.97 306.985 389.977 305.61 392.215 304.841C394.452 304.073 396.841 303.938 399.143 304.45C401.445 304.962 403.58 306.103 405.334 307.759C407.087 309.416 408.399 311.529 409.137 313.888C410.231 317.385 409.995 321.193 408.481 324.509C406.966 327.826 404.291 330.391 401.02 331.664L381.833 339.129L354.229 363.41Z" fill="#FFB6B6"/>
<path d="M134.482 250.048V326.037H184.889V250.048C184.889 249.501 184.724 248.969 184.418 248.529C184.111 248.089 183.678 247.764 183.184 247.603C182.951 247.522 182.707 247.482 182.461 247.484H136.916C136.597 247.484 136.281 247.549 135.985 247.678C135.69 247.807 135.422 247.995 135.196 248.233C134.97 248.471 134.79 248.754 134.668 249.066C134.545 249.377 134.482 249.711 134.482 250.048ZM154.153 276.158C154.167 274.66 154.739 273.228 155.747 272.174C156.755 271.119 158.116 270.528 159.534 270.528C160.953 270.528 162.314 271.119 163.322 272.174C164.329 273.228 164.902 274.66 164.915 276.158V284.975C164.908 286.477 164.338 287.915 163.33 288.975C162.321 290.034 160.957 290.629 159.534 290.629C158.112 290.629 156.747 290.034 155.739 288.975C154.731 287.915 154.161 286.477 154.153 284.975V276.158Z" fill="#35455C"/>
<path d="M134.327 323.607V330.935C134.329 331.314 134.471 331.678 134.725 331.947C134.978 332.216 135.322 332.369 135.681 332.372H183.689C184.049 332.37 184.393 332.218 184.647 331.949C184.901 331.679 185.043 331.315 185.043 330.935V323.607H134.327Z" fill="#3F3D56"/>
<path d="M55.1846 135.56V274.306C55.1859 276.074 55.8515 277.769 57.0354 279.019C58.2192 280.27 59.8244 280.973 61.4986 280.974H256.181C257.855 280.973 259.46 280.27 260.644 279.019C261.828 277.769 262.494 276.074 262.495 274.306V135.56C262.491 133.794 261.824 132.101 260.641 130.852C259.457 129.604 257.854 128.902 256.181 128.899H61.4986C59.8259 128.902 58.2222 129.604 57.0387 130.852C55.8553 132.101 55.1885 133.794 55.1846 135.56Z" fill="#3F3D56"/>
<path d="M59.7517 137.287V272.594C59.7533 273.539 60.1093 274.444 60.7418 275.112C61.3743 275.78 62.2317 276.156 63.1262 276.158H254.56C255.455 276.156 256.312 275.78 256.945 275.112C257.577 274.444 257.933 273.539 257.935 272.594V137.287C257.935 136.341 257.579 135.434 256.947 134.764C256.314 134.095 255.456 133.717 254.56 133.715H63.1262C62.2306 133.717 61.3724 134.095 60.7398 134.764C60.1071 135.434 59.7518 136.341 59.7517 137.287Z" fill="white"/>
<path d="M95.2786 331.876C95.4734 332.134 95.7211 332.342 96.003 332.484C96.2849 332.627 96.5937 332.7 96.9062 332.698H210.797C211.109 332.698 211.416 332.624 211.697 332.482C211.978 332.341 212.226 332.135 212.422 331.879C212.618 331.624 212.758 331.325 212.832 331.005C212.905 330.686 212.91 330.353 212.846 330.031L211.078 321.162C211.005 320.8 210.847 320.464 210.619 320.183C210.391 319.902 210.1 319.686 209.773 319.554C209.536 319.456 209.284 319.406 209.029 319.406H98.6671C98.4127 319.406 98.1604 319.456 97.9235 319.554C97.5963 319.686 97.3054 319.902 97.0775 320.183C96.8496 320.464 96.6918 320.8 96.6186 321.162L94.8507 330.031C94.7878 330.353 94.7935 330.685 94.8676 331.004C94.9416 331.323 95.082 331.621 95.2786 331.876Z" fill="#35455C"/>
<path d="M248.348 152.355H69.2235C69.0373 152.35 68.8602 152.269 68.73 152.128C68.5998 151.988 68.5269 151.799 68.5269 151.602C68.5269 151.406 68.5998 151.217 68.73 151.076C68.8602 150.936 69.0373 150.854 69.2235 150.85H248.348C248.534 150.854 248.711 150.936 248.841 151.076C248.972 151.217 249.044 151.406 249.044 151.602C249.044 151.799 248.972 151.988 248.841 152.128C248.711 152.269 248.534 152.35 248.348 152.355Z" fill="#3F3D56"/>
<path d="M81.4168 147.009C83.7223 147.009 85.5913 144.991 85.5913 142.502C85.5913 140.013 83.7223 137.995 81.4168 137.995C79.1112 137.995 77.2422 140.013 77.2422 142.502C77.2422 144.991 79.1112 147.009 81.4168 147.009Z" fill="#3F3D56"/>
<path d="M95.838 147.009C98.1435 147.009 100.013 144.991 100.013 142.502C100.013 140.013 98.1435 137.995 95.838 137.995C93.5324 137.995 91.6634 140.013 91.6634 142.502C91.6634 144.991 93.5324 147.009 95.838 147.009Z" fill="#3F3D56"/>
<path d="M110.259 147.009C112.565 147.009 114.434 144.991 114.434 142.502C114.434 140.013 112.565 137.995 110.259 137.995C107.954 137.995 106.085 140.013 106.085 142.502C106.085 144.991 107.954 147.009 110.259 147.009Z" fill="#3F3D56"/>
<path d="M239.664 139.109H229.421C229.219 139.114 229.026 139.203 228.884 139.356C228.743 139.509 228.664 139.714 228.664 139.928C228.664 140.142 228.743 140.347 228.884 140.5C229.026 140.653 229.219 140.742 229.421 140.747H239.664C239.867 140.744 240.062 140.656 240.205 140.503C240.348 140.35 240.428 140.143 240.428 139.928C240.428 139.713 240.348 139.506 240.205 139.353C240.062 139.2 239.867 139.112 239.664 139.109Z" fill="#3F3D56"/>
<path d="M239.664 142.184H229.421C229.218 142.189 229.026 142.277 228.884 142.43C228.742 142.583 228.663 142.789 228.663 143.003C228.663 143.217 228.742 143.422 228.884 143.575C229.026 143.729 229.218 143.817 229.421 143.822H239.664C239.868 143.819 240.063 143.732 240.206 143.578C240.349 143.425 240.43 143.218 240.43 143.003C240.43 142.787 240.349 142.581 240.206 142.427C240.063 142.274 239.868 142.187 239.664 142.184Z" fill="#3F3D56"/>
<path d="M239.664 145.259H229.421C229.219 145.264 229.026 145.352 228.884 145.505C228.743 145.658 228.664 145.864 228.664 146.078C228.664 146.292 228.743 146.497 228.884 146.65C229.026 146.803 229.219 146.891 229.421 146.896H239.664C239.867 146.893 240.062 146.806 240.205 146.653C240.348 146.499 240.428 146.293 240.428 146.078C240.428 145.862 240.348 145.656 240.205 145.503C240.062 145.35 239.867 145.262 239.664 145.259Z" fill="#3F3D56"/>
<path d="M486.598 326.823C486.907 327.773 487.493 328.596 488.273 329.172C489.052 329.749 489.984 330.05 490.936 330.032L509.521 329.527C510.479 329.507 511.406 329.16 512.162 328.538C512.919 327.916 513.464 327.053 513.717 326.076L516.347 296.375C517.28 296.821 518.296 297.041 519.32 297.02C520.21 296.996 521.087 296.788 521.9 296.406C522.714 296.025 523.448 295.478 524.062 294.797C524.675 294.116 525.155 293.313 525.475 292.436C525.795 291.559 525.948 290.624 525.926 289.684C525.904 288.744 525.706 287.818 525.345 286.959C524.984 286.1 524.466 285.324 523.821 284.677C523.176 284.029 522.417 283.521 521.586 283.184C520.755 282.846 519.87 282.684 518.98 282.708C518.571 282.706 518.162 282.751 517.762 282.841C517.327 282.344 516.798 281.948 516.209 281.68C515.62 281.412 514.984 281.276 514.343 281.283L485.754 282.063C485.517 282.072 485.281 282.103 485.049 282.155C484.422 282.279 483.827 282.543 483.305 282.929C482.782 283.316 482.345 283.816 482.021 284.396C481.697 284.976 481.494 285.623 481.427 286.293C481.359 286.963 481.429 287.64 481.63 288.279L486.598 326.823ZM516.886 294.358L518.758 287.28C518.971 286.462 518.976 285.6 518.772 284.78C518.863 284.779 518.943 284.734 519.034 284.734C520.317 284.706 521.559 285.216 522.486 286.153C523.413 287.091 523.951 288.378 523.981 289.733C524.011 291.088 523.531 292.401 522.646 293.383C521.761 294.364 520.544 294.936 519.261 294.971C518.431 294.999 517.61 294.787 516.886 294.358Z" fill="#3F3D56"/>
<path d="M485.049 282.155C485.658 285.833 492.506 288.419 500.74 287.97C508.311 287.601 514.502 284.793 515.637 281.465C515.217 281.334 514.78 281.273 514.343 281.283L485.754 282.063C485.517 282.072 485.281 282.103 485.049 282.155Z" fill="#3F3D56"/>
<path d="M502.249 310.502C502.286 310.492 502.322 310.475 502.354 310.452L506.391 307.662C506.439 307.629 506.479 307.583 506.507 307.529C506.535 307.475 506.55 307.414 506.55 307.353C506.55 307.291 506.535 307.231 506.507 307.176C506.48 307.122 506.44 307.076 506.391 307.043L502.196 304.141C502.157 304.114 502.114 304.095 502.069 304.086C502.023 304.077 501.977 304.077 501.932 304.087C501.886 304.097 501.843 304.116 501.805 304.143C501.767 304.171 501.734 304.206 501.709 304.247C501.684 304.287 501.666 304.333 501.658 304.381C501.649 304.429 501.65 304.478 501.659 304.526C501.669 304.574 501.687 304.619 501.713 304.659C501.739 304.699 501.773 304.734 501.811 304.76L505.558 307.352L501.97 309.833C501.901 309.881 501.85 309.953 501.826 310.037C501.803 310.121 501.808 310.211 501.841 310.291C501.875 310.372 501.934 310.437 502.008 310.475C502.083 310.514 502.168 310.523 502.249 310.502Z" fill="#6C63FF"/>
<path d="M495.874 310.812C495.941 310.794 496.003 310.755 496.049 310.7C496.096 310.645 496.126 310.576 496.135 310.503C496.145 310.43 496.133 310.356 496.102 310.29C496.072 310.223 496.023 310.168 495.962 310.132L492.242 307.879L495.838 305.058C495.875 305.029 495.906 304.993 495.929 304.951C495.953 304.909 495.969 304.863 495.975 304.815C495.982 304.767 495.98 304.718 495.969 304.671C495.957 304.624 495.937 304.579 495.91 304.54C495.883 304.501 495.848 304.468 495.809 304.443C495.769 304.418 495.725 304.402 495.68 304.395C495.634 304.388 495.588 304.39 495.543 304.402C495.498 304.414 495.456 304.435 495.42 304.464L491.394 307.622C491.347 307.659 491.309 307.707 491.285 307.763C491.26 307.819 491.249 307.88 491.252 307.941C491.256 308.003 491.274 308.062 491.304 308.114C491.335 308.167 491.378 308.21 491.428 308.241L495.613 310.774C495.692 310.822 495.785 310.836 495.874 310.812Z" fill="#6C63FF"/>
<path d="M501.847 312.947C501.881 312.938 501.913 312.923 501.943 312.904C501.983 312.879 502.017 312.845 502.044 312.806C502.071 312.767 502.091 312.722 502.102 312.675C502.113 312.628 502.115 312.579 502.108 312.531C502.101 312.482 502.085 312.436 502.061 312.395L496.339 302.46C496.291 302.376 496.213 302.316 496.122 302.293C496.032 302.27 495.937 302.286 495.857 302.337C495.778 302.388 495.721 302.47 495.699 302.566C495.677 302.661 495.692 302.762 495.74 302.846L501.461 312.78C501.5 312.848 501.559 312.901 501.628 312.931C501.698 312.96 501.774 312.966 501.847 312.947Z" fill="#6C63FF"/>
<path d="M180.188 193.253H149.185C147.921 193.253 146.895 194.336 146.895 195.672V198.871C146.895 200.206 147.921 201.289 149.185 201.289H180.188C181.453 201.289 182.478 200.206 182.478 198.871V195.672C182.478 194.336 181.453 193.253 180.188 193.253Z" fill="#4886DB"/>
<path d="M198.259 209.325H131.114C129.85 209.325 128.824 210.408 128.824 211.743V214.942C128.824 216.278 129.85 217.361 131.114 217.361H198.259C199.524 217.361 200.549 216.278 200.549 214.942V211.743C200.549 210.408 199.524 209.325 198.259 209.325Z" fill="#E6E6E6"/>
<path d="M198.259 225.397H131.114C129.85 225.397 128.824 226.479 128.824 227.815V231.014C128.824 232.35 129.85 233.433 131.114 233.433H198.259C199.524 233.433 200.549 232.35 200.549 231.014V227.815C200.549 226.479 199.524 225.397 198.259 225.397Z" fill="#E6E6E6"/>
<path d="M203.951 279.214L204.103 279.722L204.111 279.739L208.689 294.437L213.955 311.375L223.863 343.206L223.959 348.151V348.168L224.695 387.944L222.654 393.336L224.951 402.177C224.951 402.177 223.895 388.813 218.228 396.488C215.019 400.849 211.266 405.312 208.184 409.496C212.674 411.415 217.236 413.15 221.87 414.703C222.87 415.041 223.879 415.362 224.887 415.683C225.103 415.751 225.319 415.818 225.535 415.886C240.896 420.683 256.776 423.379 272.786 423.907C273.618 423.932 274.435 423.949 275.227 423.966C275.507 423.975 275.779 423.983 276.051 423.983C276.948 423.992 277.836 424 278.732 424C280.541 424 282.342 423.972 284.134 423.916C297.403 423.521 310.594 421.636 323.486 418.295C323.398 412.674 323.158 406.107 322.813 399.091C322.653 395.651 319.06 391.924 318.844 388.323C318.692 385.618 321.917 383.074 321.749 380.327C320.661 363.414 319.3 369.907 318.292 357.93C318.188 356.755 318.092 355.631 318.004 354.558C317.355 346.866 316.907 342.057 316.907 342.057L321.213 313.395L327.976 268.396L327.455 267.491L326.871 267.187L291.201 248.541L289.264 243.301C288.7 241.791 287.721 240.494 286.453 239.577C285.185 238.66 283.686 238.164 282.15 238.154L258.652 238.052C257.433 238.046 256.23 238.348 255.143 238.931C254.056 239.515 253.116 240.364 252.402 241.408L246.039 250.714L203.951 279.214Z" fill="#4886DB"/>
<path d="M229.281 336.123L223.959 348.151L220.325 356.366L214.075 390.928L210.946 394.435L208.265 382.018L180.204 388.598C179.283 383.197 179.957 388.781 179.389 382.856C179.549 382.687 179.717 382.518 179.885 382.348C180.334 381.909 180.71 381.495 180.702 381.098C180.382 360.66 181.342 325.879 189.361 304.808C190.617 301.367 192.273 298.105 194.291 295.096C194.451 294.868 194.603 294.64 194.755 294.412C198.453 288.943 200.79 283.559 204.103 279.73V279.722C204.124 279.704 204.142 279.684 204.159 279.662C204.171 279.656 204.182 279.648 204.191 279.637L226.952 266.891L227.928 295.865L228.625 316.692L229.281 336.123Z" fill="#4886DB"/>
<path d="M311.353 339.539L318 354.562L320.321 359.793L326.569 394.351L329.688 397.85L332.376 385.436L333.638 385.162L356.41 380.182L363.047 402.444C364.543 399.811 365.132 396.714 364.715 393.676C364.298 390.638 362.901 387.844 360.759 385.769C360.306 385.336 359.928 384.914 359.939 384.515C360.317 360.477 358.924 316.584 346.352 298.519C342.358 292.786 339.963 287.076 336.477 283.086C336.466 283.075 336.466 283.064 336.455 283.064L327.972 268.395L327.454 267.494L326.872 267.187L311.353 339.539Z" fill="#4886DB"/>
<path d="M271.08 230.99C288.344 230.99 302.34 216.209 302.34 197.976C302.34 179.742 288.344 164.961 271.08 164.961C253.815 164.961 239.819 179.742 239.819 197.976C239.819 216.209 253.815 230.99 271.08 230.99Z" fill="#FFB6B6"/>
<path d="M313.332 174.915C313.089 174.642 312.797 174.423 312.473 174.271C312.149 174.12 311.799 174.039 311.444 174.033L311.914 172.655C312.068 172.221 312.109 171.752 312.034 171.295C311.959 170.839 311.771 170.411 311.488 170.057C311.206 169.703 310.839 169.434 310.426 169.279C310.012 169.123 309.567 169.087 309.136 169.173L307.424 169.521L307.586 168.314C307.648 167.864 307.598 167.405 307.441 166.981C307.283 166.558 307.025 166.186 306.69 165.9C306.355 165.614 305.956 165.426 305.531 165.353C305.106 165.28 304.671 165.325 304.267 165.483C303.9 165.636 303.506 165.7 303.113 165.67C302.719 165.641 302.337 165.519 301.994 165.313C301.65 165.113 301.351 164.837 301.119 164.503C300.886 164.169 300.725 163.785 300.647 163.379L300.051 160.341L299.988 160.178C297.083 155.066 291.499 151.346 284.666 149.983C278.583 148.76 272.346 149.383 266.334 149.968C263.949 150.205 261.255 150.472 259.01 151.924C257.102 153.169 255.488 155.658 255.818 158.17C249.89 156.251 243.533 160.082 240.384 164.913C236.651 170.662 236.041 177.864 235.943 183.495C235.676 196.817 238.279 207.716 243.66 215.896C244.053 216.488 244.151 217.726 244.93 218.141L244.768 217.867C245.638 218.326 246.522 219.067 246.192 219.86C245.245 222.142 251.538 227.187 255.972 228.854C264.061 231.9 274.816 231.64 282.379 230.544L282.645 228.654C285.374 228.262 287.297 227.513 287.837 226.343C288.791 225.483 289.605 224.713 290.313 224.001L290.32 223.994C290.334 223.979 290.362 223.957 290.377 223.942C293.793 220.482 294.586 218.511 294.944 215.51C295.287 212.569 294.677 209.583 294.053 206.893C307.2 209.042 288.875 192.105 301.124 188.83C301.265 188.784 301.408 188.747 301.552 188.719C301.91 188.63 302.268 188.541 302.612 188.437C304.269 187.962 305.855 187.246 307.326 186.311C310.75 184.11 311.879 181.191 313.647 177.901C313.902 177.433 314.009 176.891 313.952 176.354C313.896 175.816 313.678 175.313 313.332 174.915Z" fill="#2F2E41"/>
<path d="M381.642 341.89C381.635 343.187 381.621 345.002 381.565 347.247C381.558 347.558 381.551 347.877 381.544 348.203C381.453 352.33 381.362 355.79 381.214 359.635C381.207 359.902 381.2 360.161 381.186 360.428C380.99 365.792 380.681 372.038 380.148 381.93C379.159 400.201 377.433 384.441 375.7 390.85C375.616 391.169 375.525 391.547 375.44 391.991C375.178 393.604 374.735 395.179 374.122 396.681C373.202 397.259 372.255 397.815 371.322 398.371C368.663 399.934 365.962 401.438 363.24 402.868C361.711 403.668 360.175 404.454 358.631 405.209C358.386 405.328 358.147 405.447 357.909 405.558C350.005 409.419 341.859 412.701 333.529 415.382C331.902 415.901 330.281 416.405 328.64 416.872C326.928 417.375 325.216 417.85 323.483 418.294C310.592 421.636 297.401 423.522 284.133 423.918C282.344 423.977 280.541 423.999 278.731 423.999C277.833 423.999 276.949 423.992 276.051 423.984C275.777 423.984 275.504 423.977 275.23 423.97C274.437 423.947 273.616 423.933 272.788 423.91C256.778 423.383 240.898 420.686 225.539 415.886L224.886 415.686C223.876 415.36 222.873 415.041 221.869 414.701C217.239 413.152 212.677 411.418 208.182 409.499C204.751 408.04 201.361 406.474 198.009 404.802C197.979 404.793 197.95 404.778 197.925 404.757C197.224 404.417 196.515 404.061 195.814 403.698C195.722 403.646 195.624 403.594 195.526 403.542C192.909 402.194 190.32 400.781 187.76 399.304C185.606 394.081 182.575 393.08 180.695 388.487C180.148 387.122 179.752 385.695 179.516 384.234C179.516 384.219 179.509 384.204 179.509 384.182C179.706 386.938 178.674 379.292 179.502 384.152C179.495 384.063 179.488 383.967 179.481 383.856C179.46 383.589 179.432 383.263 179.39 382.856C176.984 358.042 177.138 329.665 176.093 306.281C176.023 304.77 175.95 303.322 175.875 301.939C175.854 301.48 175.826 301.028 175.798 300.583C175.847 300.45 175.903 300.309 175.966 300.176C175.98 300.137 175.996 300.1 176.016 300.065C176.036 300.019 176.06 299.974 176.086 299.931C176.1 299.909 176.121 299.88 176.135 299.857C176.145 299.832 176.157 299.807 176.17 299.783C176.233 299.679 176.303 299.568 176.38 299.465C176.415 299.42 176.444 299.383 176.479 299.346C176.503 299.308 176.531 299.273 176.563 299.242C176.584 299.207 176.61 299.174 176.64 299.146C176.668 299.116 176.696 299.079 176.731 299.042C176.746 299.019 176.765 298.999 176.787 298.983C176.843 298.916 176.904 298.854 176.97 298.798C177.22 298.555 177.487 298.332 177.769 298.131C177.868 298.064 177.973 297.998 178.071 297.924C178.778 297.477 179.523 297.1 180.295 296.797C180.562 296.694 180.828 296.597 181.116 296.494C181.221 296.464 181.319 296.427 181.425 296.39C181.579 296.338 181.733 296.286 181.895 296.249C182.694 295.997 183.557 295.782 184.49 295.582C184.603 295.56 184.722 295.538 184.841 295.508C185.01 295.471 185.185 295.441 185.36 295.412C185.599 295.367 185.844 295.323 186.09 295.278C188.174 294.93 190.538 294.671 193.148 294.5C193.393 294.486 193.639 294.471 193.884 294.456C194.172 294.441 194.46 294.426 194.754 294.412C195 294.397 195.252 294.389 195.505 294.382C195.75 294.367 196.003 294.36 196.263 294.352C196.971 294.33 197.701 294.308 198.444 294.293C200.563 294.249 202.794 294.263 205.137 294.315C206.225 294.345 207.333 294.374 208.47 294.426C208.547 294.426 208.617 294.434 208.687 294.434C209.676 294.471 210.673 294.515 211.697 294.575C212.412 294.612 213.135 294.649 213.858 294.693C214.538 294.738 215.226 294.782 215.92 294.834C216.46 294.864 217.001 294.908 217.548 294.945C218.011 294.982 218.474 295.019 218.937 295.049L219.568 295.093C219.912 295.123 220.256 295.145 220.607 295.182C221.378 295.249 222.15 295.315 222.936 295.382C223.715 295.456 224.507 295.53 225.3 295.604C226.093 295.679 226.893 295.76 227.692 295.842C227.777 295.849 227.854 295.856 227.931 295.864C228.66 295.945 229.39 296.019 230.127 296.101C230.295 296.116 230.47 296.13 230.639 296.153C231.341 296.227 232.057 296.314 232.766 296.394C232.984 296.419 233.2 296.443 233.418 296.468C233.973 296.532 234.521 296.587 235.08 296.657C235.816 296.745 236.567 296.827 237.297 296.931C237.865 296.997 238.433 297.064 239.001 297.138C239.892 297.249 240.797 297.368 241.702 297.494C242.046 297.538 242.39 297.583 242.734 297.635C245.315 297.975 247.925 298.353 250.577 298.746C254.597 299.346 258.68 299.998 262.791 300.702C266.909 301.406 271.051 302.149 275.216 302.932C276.268 303.132 277.321 303.332 278.38 303.54C278.857 303.636 279.334 303.732 279.811 303.829C280.625 303.984 281.439 304.147 282.252 304.31C283.066 304.473 283.88 304.636 284.694 304.807C285.662 305.007 286.637 305.207 287.605 305.407C293.982 306.74 300.325 308.163 306.512 309.652C307.53 309.897 308.547 310.149 309.557 310.393C311.578 310.89 313.579 311.393 315.562 311.905C316.11 312.038 316.65 312.179 317.19 312.32C318.537 312.675 319.884 313.031 321.21 313.394L321.441 313.461C322.417 313.713 323.371 313.972 324.325 314.239C326.577 314.861 328.791 315.491 330.969 316.128C332.414 316.55 333.843 316.978 335.255 317.41C337.367 318.054 339.436 318.706 341.45 319.366C341.948 319.529 342.446 319.692 342.937 319.847C344.41 320.329 345.863 320.818 347.273 321.307C348.395 321.692 349.49 322.085 350.57 322.478C351.651 322.87 352.71 323.263 353.748 323.656C354.415 323.908 355.074 324.174 355.734 324.426C356.681 324.797 357.614 325.167 358.526 325.538C358.806 325.649 359.08 325.767 359.354 325.879C359.529 325.96 359.697 326.027 359.866 326.101C360.196 326.242 360.532 326.375 360.855 326.516C361.185 326.649 361.507 326.79 361.83 326.938C362.146 327.071 362.469 327.212 362.777 327.353C363.093 327.486 363.402 327.627 363.71 327.775C363.97 327.886 364.222 328.005 364.468 328.124C364.966 328.353 365.464 328.583 365.948 328.82C366.187 328.939 366.425 329.05 366.664 329.168L367.211 329.435C367.288 329.479 367.365 329.517 367.443 329.554C367.618 329.642 367.8 329.739 367.976 329.828C368.383 330.028 368.783 330.243 369.176 330.443C369.702 330.724 370.214 331.006 370.705 331.28C371.203 331.561 371.687 331.843 372.15 332.117C372.227 332.162 372.297 332.206 372.375 332.251C372.48 332.31 372.585 332.376 372.69 332.436C373.048 332.651 373.392 332.873 373.736 333.088C374.409 333.525 375.048 333.955 375.644 334.384C375.777 334.481 375.903 334.577 376.037 334.666C376.479 334.999 376.9 335.325 377.293 335.659C377.293 335.666 377.293 335.666 377.3 335.666C377.433 335.77 377.559 335.881 377.685 335.985C377.791 336.088 377.903 336.177 378.008 336.281C378.373 336.615 378.71 336.933 379.018 337.259C379.122 337.36 379.22 337.466 379.313 337.578C379.354 337.613 379.391 337.653 379.425 337.696C379.566 337.844 379.692 337.993 379.811 338.141C379.83 338.161 379.846 338.184 379.86 338.208C380.029 338.415 380.183 338.622 380.33 338.83C380.4 338.934 380.478 339.037 380.541 339.141C380.625 339.267 380.709 339.4 380.779 339.526C380.842 339.63 380.899 339.741 380.955 339.845C381.104 340.112 381.23 340.392 381.334 340.682C381.412 340.879 381.476 341.082 381.523 341.29C381.576 341.487 381.616 341.687 381.642 341.89Z" fill="#35455C"/>
<path opacity="0.2" d="M381.642 341.89C381.635 343.187 381.621 345.002 381.565 347.247C381.558 347.558 381.544 347.877 381.537 348.203C381.467 351.352 381.362 355.241 381.214 359.635C381.207 359.902 381.2 360.161 381.186 360.428C380.99 365.792 380.681 372.038 380.148 381.93C379.159 400.201 377.433 384.441 375.7 390.85C370.887 387.724 365.612 384.449 359.971 381.085C358.954 380.477 357.927 379.867 356.891 379.255C345.61 372.609 333.01 365.644 319.856 358.746C319.337 358.472 318.811 358.198 318.292 357.931C288.16 342.201 255.271 326.901 228.625 316.691C223.483 314.72 218.572 312.942 213.956 311.379C204.232 308.096 195.828 305.8 189.359 304.807C182.624 303.769 177.973 304.14 176.093 306.281C176.023 304.77 175.95 303.322 175.875 301.939C175.847 301.48 175.819 301.028 175.791 300.583C175.834 300.461 175.891 300.345 175.945 300.228C175.953 300.21 175.958 300.193 175.966 300.176C175.98 300.137 175.996 300.1 176.016 300.065C176.036 300.019 176.06 299.974 176.086 299.931C176.108 299.879 176.137 299.829 176.17 299.783C176.233 299.679 176.303 299.568 176.38 299.465C176.437 299.387 176.498 299.313 176.563 299.242C176.584 299.207 176.61 299.174 176.64 299.146C176.668 299.116 176.696 299.079 176.731 299.042C176.746 299.019 176.765 298.999 176.787 298.983C176.843 298.916 176.904 298.854 176.97 298.798C177.22 298.555 177.487 298.332 177.769 298.131C177.868 298.064 177.973 297.998 178.071 297.923C178.778 297.477 179.523 297.1 180.295 296.797C180.562 296.694 180.828 296.597 181.116 296.493C181.221 296.464 181.319 296.427 181.425 296.39C181.579 296.338 181.733 296.286 181.895 296.249C182.694 295.997 183.557 295.782 184.49 295.582C184.771 295.523 185.066 295.464 185.36 295.412C185.599 295.367 185.844 295.323 186.09 295.278C188.174 294.93 190.538 294.671 193.148 294.5C193.393 294.486 193.639 294.471 193.884 294.456C194.172 294.441 194.459 294.426 194.754 294.411C195 294.397 195.252 294.389 195.505 294.382C195.75 294.367 196.003 294.36 196.263 294.352C196.971 294.33 197.701 294.308 198.444 294.293C200.563 294.256 202.794 294.271 205.137 294.323C206.225 294.345 207.333 294.382 208.47 294.434C208.54 294.434 208.617 294.441 208.687 294.441C209.676 294.471 210.68 294.523 211.697 294.575C212.412 294.612 213.135 294.649 213.858 294.693C214.538 294.737 215.226 294.782 215.92 294.834C216.46 294.863 217 294.908 217.548 294.945C218.011 294.982 218.474 295.019 218.937 295.049C219.491 295.093 220.045 295.138 220.607 295.182C221.378 295.249 222.15 295.315 222.936 295.382C223.714 295.456 224.507 295.53 225.3 295.604C226.093 295.678 226.892 295.76 227.692 295.841C227.776 295.849 227.854 295.856 227.931 295.864C228.66 295.945 229.39 296.019 230.127 296.101C234.21 296.538 238.412 297.049 242.734 297.635C245.315 297.983 247.93 298.356 250.577 298.753C254.597 299.353 258.68 300.005 262.791 300.702C266.909 301.406 271.051 302.149 275.216 302.932C276.268 303.132 277.32 303.332 278.38 303.54C279.671 303.792 280.962 304.048 282.252 304.31C283.066 304.473 283.88 304.636 284.694 304.807C285.662 305.007 286.637 305.207 287.605 305.407C293.983 306.74 300.325 308.163 306.512 309.652C307.53 309.897 308.547 310.149 309.557 310.393C311.578 310.89 313.579 311.393 315.562 311.905C316.11 312.045 316.65 312.186 317.19 312.327C318.544 312.683 319.884 313.038 321.21 313.394V313.401C321.287 313.416 321.364 313.438 321.441 313.461C322.41 313.72 323.371 313.979 324.325 314.246C326.577 314.868 328.791 315.496 330.969 316.128C332.414 316.558 333.845 316.98 335.255 317.41C337.367 318.062 339.436 318.714 341.45 319.366C341.948 319.529 342.446 319.692 342.937 319.847C344.411 320.336 345.856 320.823 347.273 321.307C348.395 321.692 349.49 322.085 350.57 322.478C351.651 322.87 352.71 323.263 353.748 323.656C354.422 323.908 355.081 324.167 355.734 324.419C356.688 324.789 357.614 325.16 358.526 325.538C358.806 325.649 359.08 325.767 359.354 325.879C359.866 326.086 360.364 326.301 360.855 326.516C361.185 326.649 361.507 326.79 361.83 326.938C362.146 327.071 362.469 327.212 362.777 327.353C363.093 327.486 363.402 327.627 363.71 327.775C363.97 327.886 364.223 328.005 364.468 328.124C364.966 328.353 365.464 328.583 365.948 328.82C366.187 328.939 366.425 329.05 366.664 329.168L367.211 329.435C367.288 329.479 367.365 329.516 367.443 329.554C368.039 329.85 368.614 330.146 369.175 330.443C369.702 330.724 370.214 331.006 370.705 331.28C371.287 331.606 371.841 331.925 372.375 332.251C372.48 332.31 372.585 332.376 372.69 332.436C373.048 332.651 373.392 332.873 373.736 333.088C374.409 333.525 375.048 333.955 375.644 334.384C376.233 334.814 376.78 335.236 377.293 335.659C377.293 335.666 377.293 335.666 377.3 335.666C377.545 335.874 377.784 336.081 378.008 336.281C378.373 336.615 378.71 336.933 379.018 337.259C379.122 337.36 379.22 337.466 379.313 337.578C379.354 337.613 379.391 337.653 379.425 337.696C379.573 337.867 379.72 338.037 379.86 338.208C380.029 338.415 380.183 338.622 380.33 338.83C380.4 338.934 380.478 339.037 380.541 339.141C380.625 339.267 380.709 339.4 380.779 339.526C380.842 339.63 380.899 339.741 380.955 339.845C381.104 340.112 381.23 340.392 381.334 340.682C381.41 340.88 381.474 341.083 381.523 341.29C381.576 341.487 381.616 341.687 381.642 341.89Z" fill="#35455C"/>
</g>
<defs>
<clipPath id="clip0_1_47">
<rect width="552" height="424" fill="white"/>
</clipPath>
</defs>
</svg>
