<svg width="73" height="73" viewBox="0 0 73 73" fill="none" xmlns="http://www.w3.org/2000/svg">
<g clip-path="url(#clip0_1_169)">
<path d="M36.5 6.08335C29.2567 6.05603 22.2414 8.61447 16.7163 13.2984C11.1912 17.9823 7.51896 24.4842 6.36029 31.6342C5.20161 38.7843 6.63257 46.1131 10.3957 52.3022C14.1588 58.4913 20.0071 63.1343 26.8883 65.3958C28.4092 65.6392 28.8958 64.6963 28.8958 63.875V58.7346C20.4704 60.5596 18.6758 54.75 18.6758 54.75C18.1078 52.8609 16.8764 51.2406 15.2083 50.1875C12.4404 48.3017 15.4212 48.3625 15.4212 48.3625C16.376 48.486 17.2905 48.8238 18.0964 49.3505C18.9023 49.8772 19.5787 50.5792 20.075 51.4042C20.9199 52.9065 22.3238 54.0145 23.9813 54.4873C25.6388 54.9601 27.4159 54.7593 28.9262 53.9288C29.0648 52.3868 29.7435 50.9433 30.8425 49.8529C24.3333 49.1838 17.0942 46.5679 17.0942 34.9792C17.0062 31.9419 18.0961 28.9883 20.1358 26.7363C19.2098 24.1187 19.3186 21.2463 20.44 18.7063C20.44 18.7063 22.995 17.885 28.8046 21.7479C33.7856 20.4089 39.0319 20.4089 44.0129 21.7479C49.8225 17.8242 52.3775 18.7063 52.3775 18.7063C53.4989 21.2463 53.6077 24.1187 52.6817 26.7363C54.7214 28.9883 55.8113 31.9419 55.7233 34.9792C55.7233 46.5983 48.6058 49.1533 41.8229 49.9138C42.5534 50.6481 43.1186 51.53 43.4805 52.5004C43.8425 53.4709 43.9929 54.5075 43.9217 55.5408V63.875C43.9217 64.6963 44.4083 65.6696 45.9596 65.3958C52.8282 63.1382 58.6681 58.5077 62.432 52.3346C66.196 46.1614 67.6378 38.8494 66.4991 31.7095C65.3604 24.5695 61.7155 18.0688 56.2181 13.3727C50.7206 8.67659 43.7301 6.09237 36.5 6.08335Z" fill="#9AC0F5"/>
</g>
<defs>
<clipPath id="clip0_1_169">
<rect width="73" height="73" fill="white"/>
</clipPath>
</defs>
</svg>
