<svg width="40" height="40" viewBox="0 0 40 40" fill="none" xmlns="http://www.w3.org/2000/svg">
<g clip-path="url(#clip0_3_191)">
<path fill-rule="evenodd" clip-rule="evenodd" d="M36.9111 6.06323C34.9106 4.03452 32.2488 2.91663 29.4129 2.91663H29.4105C26.5746 2.91663 23.9152 4.03454 21.9194 6.06088C21.1357 6.854 20.4909 7.74831 19.9966 8.71558C19.5048 7.74831 18.8599 6.854 18.0785 6.06323C16.0804 4.03452 13.421 2.91663 10.5827 2.91663H10.5804C7.74677 2.91663 5.085 4.03454 3.08452 6.06323C-1.03404 10.243 -1.03404 17.0445 3.11983 21.2526L19.9966 37.0891L36.9111 21.2196C41.0296 17.0445 41.0296 10.243 36.9111 6.06323Z" fill="white"/>
</g>
<defs>
<clipPath id="clip0_3_191">
<rect width="40" height="40" fill="white"/>
</clipPath>
</defs>
</svg>
