<svg width="73" height="73" viewBox="0 0 73 73" fill="none" xmlns="http://www.w3.org/2000/svg">
<path d="M60.3162 24.3333C60.3162 24.8504 60.3162 25.3979 60.3162 25.915C60.3445 30.5085 59.4606 35.0619 57.7159 39.3111C55.9709 43.5603 53.4001 47.4208 50.1519 50.6689C46.9037 53.9171 43.0432 56.488 38.794 58.233C34.5448 59.9777 29.9913 60.8616 25.3979 60.8333C18.7127 60.8528 12.1642 58.9411 6.53955 55.3279C7.5433 55.3279 8.48622 55.3279 9.58122 55.3279C15.0972 55.3279 20.4532 53.4749 24.7896 50.0658C22.2192 50.0427 19.7221 49.2062 17.6565 47.6763C15.591 46.1463 14.0631 44.0013 13.292 41.5491C14.0666 41.6726 14.8498 41.7337 15.6341 41.7316C16.7205 41.7237 17.8023 41.5911 18.8583 41.3362C16.1102 40.7753 13.6403 39.2822 11.8666 37.1092C10.0929 34.9365 9.12442 32.2176 9.12497 29.4129C10.8255 30.3509 12.7204 30.882 14.6608 30.9641C12.9487 29.8316 11.546 28.2902 10.5794 26.4792C9.61282 24.6682 9.11295 22.6448 9.12497 20.5921C9.12877 18.4552 9.69528 16.3571 10.7675 14.5087C13.8448 18.3037 17.6849 21.4099 22.0392 23.6263C26.3934 25.8427 31.1646 27.1198 36.0437 27.375C35.8506 26.4545 35.7487 25.5172 35.7396 24.5767C35.6602 22.073 36.3558 19.6059 37.731 17.5122C39.1064 15.4186 41.0941 13.8004 43.4234 12.8787C45.7524 11.957 48.3096 11.7767 50.745 12.3624C53.1805 12.9481 55.3757 14.2713 57.0312 16.1512C59.784 15.5983 62.4193 14.569 64.8179 13.1096C63.9018 15.9479 61.9752 18.3509 59.4037 19.8621C61.8483 19.5979 64.2382 18.9619 66.4908 17.9762C64.8228 20.4125 62.7681 22.5598 60.4075 24.3333H60.3162Z" fill="#9AC0F5"/>
</svg>
